<svg xmlns="http://www.w3.org/2000/svg" viewBox="0 0 860 220" width="860" height="220" role="img" aria-label="Animated GitHub Profile: ASCII portrait, neofetch card, live contribution graph">
<style>
.f{font-family:ui-monospace,SFMono-Regular,Menlo,Consolas,DejaVu Sans Mono,Liberation Mono,monospace}
.in{opacity:0;animation:in .7s ease-out forwards}
.blink{animation:b 1.1s steps(1) infinite}
@keyframes in{to{opacity:1}}
@keyframes b{50%{opacity:0}}
</style>
<defs>
<filter id="glow" x="-5%" y="-30%" width="110%" height="160%">
<feGaussianBlur in="SourceGraphic" stdDeviation="2.2" result="b"/>
<feColorMatrix in="b" type="matrix" values="1 0 0 0 0  0 1 0 0 0  0 0 1 0 0  0 0 0 0.6 0" result="g"/>
<feMerge><feMergeNode in="g"/><feMergeNode in="SourceGraphic"/></feMerge>
</filter>
<pattern id="scan" width="4" height="3" patternUnits="userSpaceOnUse"><rect width="4" height="1" fill="#000" opacity="0.18"/></pattern>
<clipPath id="l1"><rect x="28" y="44" width="0" height="22"><animate attributeName="width" from="0" to="420" begin="0.3s" dur="1.4s" fill="freeze"/></rect></clipPath>
<clipPath id="l2"><rect x="28" y="82" width="0" height="56"><animate attributeName="width" from="0" to="800" begin="1.9s" dur="1.6s" fill="freeze"/></rect></clipPath>
</defs>
<rect x="0.5" y="0.5" width="859" height="219" rx="12" fill="#000000" stroke="#30363d"/>
<path d="M0.5 12.5 a12 12 0 0 1 12 -12 h835 a12 12 0 0 1 12 12 v16 h-859 z" fill="#161b22"/>
<line x1="0.5" y1="28.5" x2="859.5" y2="28.5" stroke="#30363d"/>
<circle cx="18" cy="14.5" r="5" fill="#f85149"/><circle cx="34" cy="14.5" r="5" fill="#d29922"/><circle cx="50" cy="14.5" r="5" fill="#39d353"/>
<text class="f" x="430" y="18.5" text-anchor="middle" font-size="11" fill="#8b949e">~/animated-github-profile</text>

<text class="f" x="28" y="60" font-size="14" fill="#8b949e" clip-path="url(#l1)"><tspan fill="#39d353">$</tspan> ./build-profile.sh --style terminal</text>
<g filter="url(#glow)" clip-path="url(#l2)">
<text class="f" x="28" y="122" font-size="40" font-weight="700" fill="#69f0a0" letter-spacing="-1">Animated GitHub Profile</text>
</g>
<g class="in" style="animation-delay:3.6s">
<text class="f" x="30" y="160" font-size="14" fill="#c9d1d9">ASCII portrait <tspan fill="#30363d">/</tspan> neofetch card <tspan fill="#30363d">/</tspan> live contribution graph</text>
<text class="f" x="30" y="190" font-size="12" fill="#8b949e">Pure animated SVG. No tokens, no third-party widgets, refreshed daily by GitHub Actions.</text>
</g>
<rect class="blink" x="30" y="198" width="8" height="12" fill="#69f0a0" opacity="0"><set attributeName="opacity" to="1" begin="4.2s"/></rect>
<rect x="0" y="29" width="860" height="191" fill="url(#scan)"/>
<g opacity="0.55">
<rect x="700" y="62" width="10" height="10" rx="2" fill="#0e4429"/><rect x="714" y="62" width="10" height="10" rx="2" fill="#006d32"/><rect x="728" y="62" width="10" height="10" rx="2" fill="#26a641"/><rect x="742" y="62" width="10" height="10" rx="2" fill="#39d353"/><rect x="756" y="62" width="10" height="10" rx="2" fill="#69f0a0"/>
<rect x="714" y="48" width="10" height="10" rx="2" fill="#161b22"/><rect x="742" y="48" width="10" height="10" rx="2" fill="#26a641"/><rect x="770" y="62" width="10" height="10" rx="2" fill="#26a641"/><rect x="784" y="62" width="10" height="10" rx="2" fill="#0e4429"/><rect x="798" y="62" width="10" height="10" rx="2" fill="#39d353"/>
<rect x="728" y="48" width="10" height="10" rx="2" fill="#0e4429"/><rect x="770" y="48" width="10" height="10" rx="2" fill="#69f0a0"/><rect x="798" y="48" width="10" height="10" rx="2" fill="#006d32"/><rect x="812" y="48" width="10" height="10" rx="2" fill="#26a641"/><rect x="812" y="62" width="10" height="10" rx="2" fill="#161b22"/>
</g>
</svg>
